<svg id="visual" viewBox="0 0 960 540" width="960" height="540" xmlns="http://www.w3.org/2000/svg" xmlns:xlink="http://www.w3.org/1999/xlink" version="1.1"><rect x="0" y="0" width="960" height="540" fill="#202124"></rect><path d="M0 335L20 329.5C40 324 80 313 120 312C160 311 200 320 240 316.7C280 313.3 320 297.7 360 298.3C400 299 440 316 480 324C520 332 560 331 600 323C640 315 680 300 720 296.3C760 292.7 800 300.3 840 304.8C880 309.3 920 310.7 940 311.3L960 312L960 541L940 541C920 541 880 541 840 541C800 541 760 541 720 541C680 541 640 541 600 541C560 541 520 541 480 541C440 541 400 541 360 541C320 541 280 541 240 541C200 541 160 541 120 541C80 541 40 541 20 541L0 541Z" fill="#8ddad3"></path><path d="M0 349L20 347.2C40 345.3 80 341.7 120 337.3C160 333 200 328 240 325.2C280 322.3 320 321.7 360 324.3C400 327 440 333 480 341.2C520 349.3 560 359.7 600 356.2C640 352.7 680 335.3 720 330.7C760 326 800 334 840 331.2C880 328.3 920 314.7 940 307.8L960 301L960 541L940 541C920 541 880 541 840 541C800 541 760 541 720 541C680 541 640 541 600 541C560 541 520 541 480 541C440 541 400 541 360 541C320 541 280 541 240 541C200 541 160 541 120 541C80 541 40 541 20 541L0 541Z" fill="#31c8e5"></path><path d="M0 381L20 379C40 377 80 373 120 367.5C160 362 200 355 240 356.7C280 358.3 320 368.7 360 373C400 377.3 440 375.7 480 374.3C520 373 560 372 600 376.5C640 381 680 391 720 387.5C760 384 800 367 840 357.5C880 348 920 346 940 345L960 344L960 541L940 541C920 541 880 541 840 541C800 541 760 541 720 541C680 541 640 541 600 541C560 541 520 541 480 541C440 541 400 541 360 541C320 541 280 541 240 541C200 541 160 541 120 541C80 541 40 541 20 541L0 541Z" fill="#00affb"></path><path d="M0 407L20 412.2C40 417.3 80 427.7 120 424.8C160 422 200 406 240 400.2C280 394.3 320 398.7 360 402.7C400 406.7 440 410.3 480 416.8C520 423.3 560 432.7 600 429.8C640 427 680 412 720 412C760 412 800 427 840 427.5C880 428 920 414 940 407L960 400L960 541L940 541C920 541 880 541 840 541C800 541 760 541 720 541C680 541 640 541 600 541C560 541 520 541 480 541C440 541 400 541 360 541C320 541 280 541 240 541C200 541 160 541 120 541C80 541 40 541 20 541L0 541Z" fill="#008cff"></path><path d="M0 474L20 473.8C40 473.7 80 473.3 120 473.8C160 474.3 200 475.7 240 471.2C280 466.7 320 456.3 360 452C400 447.7 440 449.3 480 453.5C520 457.7 560 464.3 600 467.8C640 471.3 680 471.7 720 467.2C760 462.7 800 453.3 840 448.5C880 443.7 920 443.3 940 443.2L960 443L960 541L940 541C920 541 880 541 840 541C800 541 760 541 720 541C680 541 640 541 600 541C560 541 520 541 480 541C440 541 400 541 360 541C320 541 280 541 240 541C200 541 160 541 120 541C80 541 40 541 20 541L0 541Z" fill="#0060ff"></path><path d="M0 501L20 496.2C40 491.3 80 481.7 120 479C160 476.3 200 480.7 240 484.3C280 488 320 491 360 491.8C400 492.7 440 491.3 480 493.8C520 496.3 560 502.7 600 503.5C640 504.3 680 499.7 720 497.8C760 496 800 497 840 494.3C880 491.7 920 485.3 940 482.2L960 479L960 541L940 541C920 541 880 541 840 541C800 541 760 541 720 541C680 541 640 541 600 541C560 541 520 541 480 541C440 541 400 541 360 541C320 541 280 541 240 541C200 541 160 541 120 541C80 541 40 541 20 541L0 541Z" fill="#2903fd"></path></svg>