<svg id="visual" viewBox="0 0 900 600" width="900" height="600" xmlns="http://www.w3.org/2000/svg" xmlns:xlink="http://www.w3.org/1999/xlink" version="1.1"><rect x="0" y="0" width="900" height="600" fill="#000000"></rect><path d="M0 372L18.8 366C37.7 360 75.3 348 112.8 347C150.3 346 187.7 356 225.2 352.3C262.7 348.7 300.3 331.3 337.8 332C375.3 332.7 412.7 351.3 450.2 360C487.7 368.7 525.3 367.3 562.8 358.5C600.3 349.7 637.7 333.3 675.2 329.3C712.7 325.3 750.3 333.7 787.8 338.7C825.3 343.7 862.7 345.3 881.3 346.2L900 347L900 601L881.3 601C862.7 601 825.3 601 787.8 601C750.3 601 712.7 601 675.2 601C637.7 601 600.3 601 562.8 601C525.3 601 487.7 601 450.2 601C412.7 601 375.3 601 337.8 601C300.3 601 262.7 601 225.2 601C187.7 601 150.3 601 112.8 601C75.3 601 37.7 601 18.8 601L0 601Z" fill="#8ddad3"></path><path d="M0 388L18.8 386C37.7 384 75.3 380 112.8 375.2C150.3 370.3 187.7 364.7 225.2 361.5C262.7 358.3 300.3 357.7 337.8 360.7C375.3 363.7 412.7 370.3 450.2 379.3C487.7 388.3 525.3 399.7 562.8 395.7C600.3 391.7 637.7 372.3 675.2 367.2C712.7 362 750.3 371 787.8 367.8C825.3 364.7 862.7 349.3 881.3 341.7L900 334L900 601L881.3 601C862.7 601 825.3 601 787.8 601C750.3 601 712.7 601 675.2 601C637.7 601 600.3 601 562.8 601C525.3 601 487.7 601 450.2 601C412.7 601 375.3 601 337.8 601C300.3 601 262.7 601 225.2 601C187.7 601 150.3 601 112.8 601C75.3 601 37.7 601 18.8 601L0 601Z" fill="#31c8e5"></path><path d="M0 423L18.8 420.8C37.7 418.7 75.3 414.3 112.8 408.3C150.3 402.3 187.7 394.7 225.2 396.5C262.7 398.3 300.3 409.7 337.8 414.3C375.3 419 412.7 417 450.2 415.5C487.7 414 525.3 413 562.8 418.2C600.3 423.3 637.7 434.7 675.2 430.8C712.7 427 750.3 408 787.8 397.5C825.3 387 862.7 385 881.3 384L900 383L900 601L881.3 601C862.7 601 825.3 601 787.8 601C750.3 601 712.7 601 675.2 601C637.7 601 600.3 601 562.8 601C525.3 601 487.7 601 450.2 601C412.7 601 375.3 601 337.8 601C300.3 601 262.7 601 225.2 601C187.7 601 150.3 601 112.8 601C75.3 601 37.7 601 18.8 601L0 601Z" fill="#00affb"></path><path d="M0 453L18.8 458.5C37.7 464 75.3 475 112.8 471.7C150.3 468.3 187.7 450.7 225.2 444.3C262.7 438 300.3 443 337.8 447.5C375.3 452 412.7 456 450.2 463.2C487.7 470.3 525.3 480.7 562.8 477.5C600.3 474.3 637.7 457.7 675.2 457.7C712.7 457.7 750.3 474.3 787.8 475C825.3 475.7 862.7 460.3 881.3 452.7L900 445L900 601L881.3 601C862.7 601 825.3 601 787.8 601C750.3 601 712.7 601 675.2 601C637.7 601 600.3 601 562.8 601C525.3 601 487.7 601 450.2 601C412.7 601 375.3 601 337.8 601C300.3 601 262.7 601 225.2 601C187.7 601 150.3 601 112.8 601C75.3 601 37.7 601 18.8 601L0 601Z" fill="#008cff"></path><path d="M0 527L18.8 526.8C37.7 526.7 75.3 526.3 112.8 526.8C150.3 527.3 187.7 528.7 225.2 523.7C262.7 518.7 300.3 507.3 337.8 502.5C375.3 497.7 412.7 499.3 450.2 504C487.7 508.7 525.3 516.3 562.8 520.2C600.3 524 637.7 524 675.2 519C712.7 514 750.3 504 787.8 498.7C825.3 493.3 862.7 492.7 881.3 492.3L900 492L900 601L881.3 601C862.7 601 825.3 601 787.8 601C750.3 601 712.7 601 675.2 601C637.7 601 600.3 601 562.8 601C525.3 601 487.7 601 450.2 601C412.7 601 375.3 601 337.8 601C300.3 601 262.7 601 225.2 601C187.7 601 150.3 601 112.8 601C75.3 601 37.7 601 18.8 601L0 601Z" fill="#0060ff"></path><path d="M0 557L18.8 551.7C37.7 546.3 75.3 535.7 112.8 532.7C150.3 529.7 187.7 534.3 225.2 538.3C262.7 542.3 300.3 545.7 337.8 546.7C375.3 547.7 412.7 546.3 450.2 549.2C487.7 552 525.3 559 562.8 559.8C600.3 560.7 637.7 555.3 675.2 553.3C712.7 551.3 750.3 552.7 787.8 549.8C825.3 547 862.7 540 881.3 536.5L900 533L900 601L881.3 601C862.7 601 825.3 601 787.8 601C750.3 601 712.7 601 675.2 601C637.7 601 600.3 601 562.8 601C525.3 601 487.7 601 450.2 601C412.7 601 375.3 601 337.8 601C300.3 601 262.7 601 225.2 601C187.7 601 150.3 601 112.8 601C75.3 601 37.7 601 18.8 601L0 601Z" fill="#2903fd"></path></svg>