<svg width="339" height="296" viewBox="0 0 339 296" fill="none" xmlns="http://www.w3.org/2000/svg">
<g clip-path="url(#clip0_101:11)">
<g filter="url(#filter0_b_101:11)">
<path d="M168.5 146.272L250.772 3.77238L333.045 146.272L168.5 146.272Z" fill="#31C8E5"/>
</g>
<g filter="url(#filter1_d_101:11)">
<path d="M4.49999 146.272L86.7724 3.77238L169.045 146.272L4.49999 146.272Z" fill="#31C8E5"/>
</g>
<g filter="url(#filter2_b_101:11)">
<path d="M4.49999 146.272L169.045 146.272L86.7724 288.772L4.49999 146.272Z" fill="#008CFF"/>
</g>
<g filter="url(#filter3_b_101:11)">
<path d="M169 146L251.272 288.5L86.7276 288.5L169 146Z" fill="#0060FF"/>
</g>
<g filter="url(#filter4_b_101:11)">
<path d="M168.5 146.272L333.045 146.272L250.772 288.772L168.5 146.272Z" fill="#008CFF"/>
</g>
<g filter="url(#filter5_b_101:11)">
<path d="M86.5 4.27242L251.045 4.27242L168.772 146.772L86.5 4.27242Z" fill="#C9F5F1"/>
</g>
<path d="M150.96 171.824C151.824 171.824 152.568 172.16 153.192 172.832L159.24 179.456C155.016 184.448 149.856 188.312 143.76 191.048C137.712 193.784 130.416 195.152 121.872 195.152C114.384 195.152 107.592 193.856 101.496 191.264C95.448 188.672 90.264 185.048 85.944 180.392C81.672 175.736 78.36 170.168 76.008 163.688C73.656 157.208 72.48 150.08 72.48 142.304C72.48 134.528 73.704 127.4 76.152 120.92C78.648 114.44 82.128 108.872 86.592 104.216C91.056 99.56 96.384 95.936 102.576 93.344C108.816 90.752 115.704 89.456 123.24 89.456C130.584 89.456 137.112 90.656 142.824 93.056C148.536 95.456 153.504 98.648 157.728 102.632L152.688 109.76C152.352 110.288 151.92 110.72 151.392 111.056C150.912 111.392 150.264 111.56 149.448 111.56C148.536 111.56 147.456 111.104 146.208 110.192C145.008 109.28 143.4 108.272 141.384 107.168C139.416 106.016 136.968 104.984 134.04 104.072C131.112 103.16 127.464 102.704 123.096 102.704C117.96 102.704 113.256 103.616 108.984 105.44C104.712 107.216 101.016 109.808 97.896 113.216C94.824 116.576 92.424 120.728 90.696 125.672C89.016 130.568 88.176 136.112 88.176 142.304C88.176 148.592 89.064 154.184 90.84 159.08C92.616 163.976 95.064 168.128 98.184 171.536C101.304 174.944 104.976 177.536 109.2 179.312C113.424 181.088 117.984 181.976 122.88 181.976C125.856 181.976 128.52 181.808 130.872 181.472C133.272 181.088 135.456 180.536 137.424 179.816C139.44 179.096 141.336 178.184 143.112 177.08C144.888 175.928 146.64 174.56 148.368 172.976C148.752 172.64 149.16 172.376 149.592 172.184C150.024 171.944 150.48 171.824 150.96 171.824ZM255.722 90.608V194H240.386V147.416H186.458V194H171.05V90.608H186.458V136.256H240.386V90.608H255.722Z" fill="#202124"/>
<path d="M153.192 172.832L155.407 170.809L155.399 170.8L155.39 170.791L153.192 172.832ZM159.24 179.456L161.53 181.394L163.234 179.381L161.455 177.433L159.24 179.456ZM143.76 191.048L142.532 188.311L142.523 188.315L143.76 191.048ZM101.496 191.264L100.314 194.021L100.322 194.025L101.496 191.264ZM85.944 180.392L83.7335 182.42L83.7391 182.426L83.7448 182.432L85.944 180.392ZM76.008 163.688L78.828 162.664L78.828 162.664L76.008 163.688ZM76.152 120.92L73.3525 119.842L73.349 119.851L73.3456 119.86L76.152 120.92ZM86.592 104.216L88.7575 106.292L88.7575 106.292L86.592 104.216ZM102.576 93.344L101.425 90.5735L101.418 90.5766L102.576 93.344ZM142.824 93.056L141.662 95.8218L141.662 95.8218L142.824 93.056ZM157.728 102.632L160.178 104.364L161.681 102.237L159.786 100.45L157.728 102.632ZM152.688 109.76L150.238 108.028L150.196 108.088L150.157 108.149L152.688 109.76ZM151.392 111.056L149.781 108.525L149.726 108.56L149.672 108.598L151.392 111.056ZM146.208 110.192L144.393 112.58L144.415 112.598L144.438 112.614L146.208 110.192ZM141.384 107.168L139.868 109.757L139.905 109.779L139.943 109.799L141.384 107.168ZM134.04 104.072L134.932 101.208L134.932 101.208L134.04 104.072ZM108.984 105.44L110.136 108.21L110.149 108.205L110.162 108.199L108.984 105.44ZM97.896 113.216L95.6832 111.19L95.6819 111.192L97.896 113.216ZM90.696 125.672L87.864 124.682L87.8612 124.69L87.8584 124.698L90.696 125.672ZM98.184 171.536L95.9712 173.562L95.9712 173.562L98.184 171.536ZM130.872 181.472L131.296 184.442L131.321 184.438L131.346 184.434L130.872 181.472ZM137.424 179.816L136.415 176.991L136.404 176.995L136.393 176.999L137.424 179.816ZM143.112 177.08L144.696 179.628L144.72 179.613L144.745 179.597L143.112 177.08ZM148.368 172.976L146.392 170.718L146.366 170.741L146.341 170.765L148.368 172.976ZM149.592 172.184L150.81 174.925L150.932 174.871L151.049 174.806L149.592 172.184ZM150.96 174.824C150.98 174.824 150.983 174.826 150.972 174.824C150.96 174.821 150.946 174.817 150.931 174.81C150.917 174.804 150.914 174.8 150.922 174.806C150.931 174.813 150.955 174.832 150.994 174.873L155.39 170.791C154.238 169.549 152.714 168.824 150.96 168.824V174.824ZM150.977 174.855L157.025 181.479L161.455 177.433L155.407 170.809L150.977 174.855ZM156.95 177.518C153.022 182.16 148.228 185.755 142.532 188.311L144.988 193.785C151.484 190.869 157.01 186.736 161.53 181.394L156.95 177.518ZM142.523 188.315C136.959 190.832 130.107 192.152 121.872 192.152V198.152C130.725 198.152 138.465 196.736 144.996 193.781L142.523 188.315ZM121.872 192.152C114.735 192.152 108.349 190.918 102.67 188.503L100.322 194.025C106.835 196.794 114.033 198.152 121.872 198.152V192.152ZM102.678 188.507C97.0011 186.074 92.1676 182.689 88.1432 178.351L83.7448 182.432C88.3604 187.407 93.8949 191.27 100.314 194.021L102.678 188.507ZM88.1545 178.364C84.1733 174.025 81.0574 168.807 78.828 162.664L73.188 164.712C75.6626 171.529 79.1706 177.447 83.7335 182.42L88.1545 178.364ZM78.828 162.664C76.6093 156.552 75.48 149.775 75.48 142.304H69.48C69.48 150.385 70.7027 157.864 73.188 164.712L78.828 162.664ZM75.48 142.304C75.48 134.846 76.6531 128.082 78.9584 121.98L73.3456 119.86C70.7549 126.718 69.48 134.21 69.48 142.304H75.48ZM78.9515 121.998C81.3155 115.861 84.5895 110.639 88.7575 106.292L84.4265 102.14C79.6665 107.104 75.9805 113.019 73.3525 119.842L78.9515 121.998ZM88.7575 106.292C92.9251 101.945 97.9062 98.551 103.734 96.1113L101.418 90.5766C94.8618 93.3209 89.1868 97.1747 84.4265 102.14L88.7575 106.292ZM103.727 96.1145C109.562 93.6905 116.053 92.456 123.24 92.456V86.456C115.355 86.456 108.07 87.8134 101.425 90.5735L103.727 96.1145ZM123.24 92.456C130.258 92.456 136.379 93.6022 141.662 95.8218L143.986 90.2902C137.845 87.7097 130.91 86.456 123.24 86.456V92.456ZM141.662 95.8218C147.065 98.092 151.724 101.093 155.67 104.814L159.786 100.45C155.284 96.2029 150.007 92.82 143.986 90.2902L141.662 95.8218ZM155.278 100.9L150.238 108.028L155.138 111.492L160.178 104.364L155.278 100.9ZM150.157 108.149C150.057 108.307 149.939 108.425 149.781 108.525L153.003 113.587C153.901 113.015 154.647 112.269 155.219 111.371L150.157 108.149ZM149.672 108.598C149.764 108.534 149.819 108.523 149.793 108.53C149.762 108.538 149.655 108.56 149.448 108.56V114.56C150.645 114.56 151.965 114.317 153.112 113.514L149.672 108.598ZM149.448 108.56C149.49 108.56 149.393 108.569 149.121 108.454C148.85 108.34 148.47 108.13 147.978 107.77L144.438 112.614C145.878 113.667 147.592 114.56 149.448 114.56V108.56ZM148.023 107.803C146.66 106.768 144.911 105.679 142.825 104.537L139.943 109.799C141.889 110.865 143.356 111.792 144.393 112.58L148.023 107.803ZM142.9 104.579C140.681 103.28 138.008 102.166 134.932 101.208L133.148 106.936C135.928 107.802 138.151 108.752 139.868 109.757L142.9 104.579ZM134.932 101.208C131.621 100.177 127.649 99.704 123.096 99.704V105.704C127.279 105.704 130.603 106.143 133.148 106.936L134.932 101.208ZM123.096 99.704C117.598 99.704 112.488 100.682 107.806 102.681L110.162 108.199C114.024 106.55 118.322 105.704 123.096 105.704V99.704ZM107.832 102.67C103.157 104.613 99.0989 107.459 95.6832 111.19L100.109 115.242C102.933 112.157 106.267 109.819 110.136 108.21L107.832 102.67ZM95.6819 111.192C92.298 114.893 89.7059 119.412 87.864 124.682L93.528 126.662C95.1421 122.044 97.35 118.259 100.11 115.24L95.6819 111.192ZM87.8584 124.698C86.0521 129.962 85.176 135.844 85.176 142.304H91.176C91.176 136.38 91.9799 131.174 93.5336 126.646L87.8584 124.698ZM85.176 142.304C85.176 148.871 86.1031 154.819 88.0198 160.103L93.6602 158.057C92.0249 153.549 91.176 148.313 91.176 142.304H85.176ZM88.0198 160.103C89.9133 165.323 92.553 169.828 95.9712 173.562L100.397 169.51C97.575 166.428 95.3187 162.629 93.6602 158.057L88.0198 160.103ZM95.9712 173.562C99.3812 177.286 103.41 180.132 108.037 182.077L110.363 176.546C106.541 174.94 103.227 172.601 100.397 169.51L95.9712 173.562ZM108.037 182.077C112.654 184.019 117.612 184.976 122.88 184.976V178.976C118.356 178.976 114.194 178.157 110.363 176.546L108.037 182.077ZM122.88 184.976C125.964 184.976 128.774 184.802 131.296 184.442L130.448 178.502C128.266 178.814 125.748 178.976 122.88 178.976V184.976ZM131.346 184.434C133.906 184.025 136.28 183.429 138.455 182.633L136.393 176.999C134.632 177.643 132.638 178.151 130.398 178.51L131.346 184.434ZM138.433 182.641C140.645 181.851 142.734 180.847 144.696 179.628L141.528 174.532C139.938 175.521 138.235 176.341 136.415 176.991L138.433 182.641ZM144.745 179.597C146.674 178.345 148.557 176.872 150.395 175.187L146.341 170.765C144.723 172.248 143.102 173.511 141.479 174.563L144.745 179.597ZM150.344 175.234C150.519 175.08 150.675 174.986 150.81 174.925L148.374 169.443C147.645 169.766 146.985 170.2 146.392 170.718L150.344 175.234ZM151.049 174.806C151.057 174.802 151.047 174.809 151.021 174.815C150.996 174.822 150.973 174.824 150.96 174.824V168.824C149.955 168.824 148.999 169.082 148.135 169.561L151.049 174.806ZM255.722 90.608H258.722V87.608H255.722V90.608ZM255.722 194V197H258.722V194H255.722ZM240.386 194H237.386V197H240.386V194ZM240.386 147.416H243.386V144.416H240.386V147.416ZM186.458 147.416V144.416H183.458V147.416H186.458ZM186.458 194V197H189.458V194H186.458ZM171.05 194H168.05V197H171.05V194ZM171.05 90.608V87.608H168.05V90.608H171.05ZM186.458 90.608H189.458V87.608H186.458V90.608ZM186.458 136.256H183.458V139.256H186.458V136.256ZM240.386 136.256V139.256H243.386V136.256H240.386ZM240.386 90.608V87.608H237.386V90.608H240.386ZM252.722 90.608V194H258.722V90.608H252.722ZM255.722 191H240.386V197H255.722V191ZM243.386 194V147.416H237.386V194H243.386ZM240.386 144.416H186.458V150.416H240.386V144.416ZM183.458 147.416V194H189.458V147.416H183.458ZM186.458 191H171.05V197H186.458V191ZM174.05 194V90.608H168.05V194H174.05ZM171.05 93.608H186.458V87.608H171.05V93.608ZM183.458 90.608V136.256H189.458V90.608H183.458ZM186.458 139.256H240.386V133.256H186.458V139.256ZM243.386 136.256V90.608H237.386V136.256H243.386ZM240.386 93.608H255.722V87.608H240.386V93.608Z" fill="black"/>
</g>
<defs>
<filter id="filter0_b_101:11" x="164.5" y="-0.227615" width="172.545" height="150.5" filterUnits="userSpaceOnUse" color-interpolation-filters="sRGB">
<feFlood flood-opacity="0" result="BackgroundImageFix"/>
<feGaussianBlur in="BackgroundImage" stdDeviation="2"/>
<feComposite in2="SourceAlpha" operator="in" result="effect1_backgroundBlur_101:11"/>
<feBlend mode="normal" in="SourceGraphic" in2="effect1_backgroundBlur_101:11" result="shape"/>
</filter>
<filter id="filter1_d_101:11" x="0.499985" y="3.77238" width="172.545" height="150.5" filterUnits="userSpaceOnUse" color-interpolation-filters="sRGB">
<feFlood flood-opacity="0" result="BackgroundImageFix"/>
<feColorMatrix in="SourceAlpha" type="matrix" values="0 0 0 0 0 0 0 0 0 0 0 0 0 0 0 0 0 0 127 0" result="hardAlpha"/>
<feOffset dy="4"/>
<feGaussianBlur stdDeviation="2"/>
<feComposite in2="hardAlpha" operator="out"/>
<feColorMatrix type="matrix" values="0 0 0 0 0 0 0 0 0 0 0 0 0 0 0 0 0 0 0.25 0"/>
<feBlend mode="normal" in2="BackgroundImageFix" result="effect1_dropShadow_101:11"/>
<feBlend mode="normal" in="SourceGraphic" in2="effect1_dropShadow_101:11" result="shape"/>
</filter>
<filter id="filter2_b_101:11" x="0.499992" y="142.272" width="172.545" height="150.5" filterUnits="userSpaceOnUse" color-interpolation-filters="sRGB">
<feFlood flood-opacity="0" result="BackgroundImageFix"/>
<feGaussianBlur in="BackgroundImage" stdDeviation="2"/>
<feComposite in2="SourceAlpha" operator="in" result="effect1_backgroundBlur_101:11"/>
<feBlend mode="normal" in="SourceGraphic" in2="effect1_backgroundBlur_101:11" result="shape"/>
</filter>
<filter id="filter3_b_101:11" x="82.7276" y="142" width="172.545" height="150.5" filterUnits="userSpaceOnUse" color-interpolation-filters="sRGB">
<feFlood flood-opacity="0" result="BackgroundImageFix"/>
<feGaussianBlur in="BackgroundImage" stdDeviation="2"/>
<feComposite in2="SourceAlpha" operator="in" result="effect1_backgroundBlur_101:11"/>
<feBlend mode="normal" in="SourceGraphic" in2="effect1_backgroundBlur_101:11" result="shape"/>
</filter>
<filter id="filter4_b_101:11" x="164.5" y="142.272" width="172.545" height="150.5" filterUnits="userSpaceOnUse" color-interpolation-filters="sRGB">
<feFlood flood-opacity="0" result="BackgroundImageFix"/>
<feGaussianBlur in="BackgroundImage" stdDeviation="2"/>
<feComposite in2="SourceAlpha" operator="in" result="effect1_backgroundBlur_101:11"/>
<feBlend mode="normal" in="SourceGraphic" in2="effect1_backgroundBlur_101:11" result="shape"/>
</filter>
<filter id="filter5_b_101:11" x="82.5" y="0.272415" width="172.545" height="150.5" filterUnits="userSpaceOnUse" color-interpolation-filters="sRGB">
<feFlood flood-opacity="0" result="BackgroundImageFix"/>
<feGaussianBlur in="BackgroundImage" stdDeviation="2"/>
<feComposite in2="SourceAlpha" operator="in" result="effect1_backgroundBlur_101:11"/>
<feBlend mode="normal" in="SourceGraphic" in2="effect1_backgroundBlur_101:11" result="shape"/>
</filter>
<clipPath id="clip0_101:11">
<rect width="339" height="296" fill="white"/>
</clipPath>
</defs>
</svg>
